<svg width="139" height="120" viewBox="0 0 139 120" fill="none" xmlns="http://www.w3.org/2000/svg">
<path fill-rule="evenodd" clip-rule="evenodd" d="M117.196 38.7703C102.79 41.6993 107.22 44.4315 115.17 42.4206C128.286 39.0982 136.109 44.2348 132.261 53.6774C129.526 60.3659 116.386 68.3004 102.891 71.4042C88.8136 74.6392 64.2291 74.8577 47.696 71.7539C46.1009 71.4479 31.2894 69.0435 28.7069 68.5845C17.8957 66.6391 12.0218 66.3769 7.81885 67.732C2.14745 69.5681 0.50172 76.9124 4.95783 80.4971C6.9327 82.0927 7.38843 81.8304 6.17313 79.8413C1.18534 71.6665 11.9711 67.3823 28.9601 70.7922C37.5432 72.5189 44.1513 73.3277 48.7594 74.2457C90.0796 82.4861 136.691 70.0927 136.59 50.7703C136.565 43.4916 126.032 36.9779 117.196 38.7703Z" fill="url(#paint0_linear_62_24)"/>
<defs>
<linearGradient id="paint0_linear_62_24" x1="69.4978" y1="38.47" x2="69.4978" y2="81.5355" gradientUnits="userSpaceOnUse">
<stop stop-color="white"/>
<stop offset="1" stop-color="#191919"/>
</linearGradient>
</defs>
</svg>
