<svg width="437" height="306" viewBox="0 0 437 306" fill="none" xmlns="http://www.w3.org/2000/svg">
<path d="M228.296 126.939C279.851 147.431 324.183 171.841 354.183 194.733C369.184 206.181 380.587 217.237 387.518 227.222C394.459 237.219 396.865 246.063 394.053 253.138C391.241 260.213 383.419 264.992 371.51 267.497C359.615 269.998 343.734 270.21 324.967 268.235C287.438 264.287 238.445 251.601 186.89 231.109C135.336 210.617 91.0032 186.208 61.0038 163.315C46.0025 151.868 34.6007 140.811 27.6692 130.827C20.7288 120.83 18.3222 111.985 21.1343 104.91C23.9465 97.8354 31.7679 93.0568 43.6777 90.5519C55.5722 88.0503 71.4529 87.8384 90.2195 89.813C127.749 93.7618 176.742 106.447 228.296 126.939Z" stroke="#585858" stroke-opacity="0.35" stroke-width="0.663303"/>
<path d="M249.121 74.545C300.676 95.0369 345.008 119.447 375.008 142.339C390.009 153.787 401.412 164.843 408.343 174.828C415.284 184.825 417.69 193.669 414.878 200.744C412.066 207.819 404.245 212.598 392.335 215.103C380.44 217.604 364.559 217.816 345.792 215.841C308.263 211.893 259.27 199.207 207.716 178.715C156.161 158.223 111.828 133.814 81.829 110.921C66.8277 99.4736 55.4259 88.4174 48.4944 78.4328C41.554 68.4355 39.1474 59.5913 41.9595 52.5164C44.7717 45.4414 52.5931 40.6627 64.5029 38.1579C76.3974 35.6563 92.2781 35.4443 111.045 37.4189C148.574 41.3677 197.567 54.0531 249.121 74.545Z" stroke="#585858" stroke-opacity="0.35" stroke-width="0.663303"/>
</svg>
