<svg width="70" height="70" viewBox="0 0 70 70" fill="none" xmlns="http://www.w3.org/2000/svg">
<path d="M49.5833 5.83337C53.4511 5.83337 57.1604 7.36983 59.8953 10.1047C62.6302 12.8396 64.1666 16.549 64.1666 20.4167V49.5834C64.1666 53.4511 62.6302 57.1604 59.8953 59.8953C57.1604 62.6303 53.4511 64.1667 49.5833 64.1667H20.4166C16.5489 64.1667 12.8396 62.6303 10.1047 59.8953C7.36977 57.1604 5.83331 53.4511 5.83331 49.5834V20.4167C5.83331 16.549 7.36977 12.8396 10.1047 10.1047C12.8396 7.36983 16.5489 5.83337 20.4166 5.83337H49.5833ZM23.3333 29.1667C22.5598 29.1667 21.8179 29.474 21.2709 30.021C20.7239 30.568 20.4166 31.3098 20.4166 32.0834V46.6667C20.4166 47.4403 20.7239 48.1821 21.2709 48.7291C21.8179 49.2761 22.5598 49.5834 23.3333 49.5834C24.1069 49.5834 24.8487 49.2761 25.3957 48.7291C25.9427 48.1821 26.25 47.4403 26.25 46.6667V32.0834C26.25 31.3098 25.9427 30.568 25.3957 30.021C24.8487 29.474 24.1069 29.1667 23.3333 29.1667ZM40.8333 29.1667C39.6632 29.1661 38.5048 29.4001 37.4266 29.855L37.0621 30.0213C36.6542 29.6135 36.1345 29.3358 35.5688 29.2233C35.0031 29.1109 34.4168 29.1686 33.8839 29.3893C33.351 29.61 32.8956 29.9838 32.5751 30.4633C32.2546 30.9428 32.0834 31.5066 32.0833 32.0834V46.6667C32.0833 47.4403 32.3906 48.1821 32.9376 48.7291C33.4846 49.2761 34.2264 49.5834 35 49.5834C35.7735 49.5834 36.5154 49.2761 37.0624 48.7291C37.6094 48.1821 37.9166 47.4403 37.9166 46.6667V37.9167C37.9166 37.1432 38.2239 36.4013 38.7709 35.8543C39.3179 35.3073 40.0598 35 40.8333 35C41.6069 35 42.3487 35.3073 42.8957 35.8543C43.4427 36.4013 43.75 37.1432 43.75 37.9167V46.6667C43.75 47.4403 44.0573 48.1821 44.6043 48.7291C45.1512 49.2761 45.8931 49.5834 46.6666 49.5834C47.4402 49.5834 48.1821 49.2761 48.729 48.7291C49.276 48.1821 49.5833 47.4403 49.5833 46.6667V37.9167C49.5833 35.5961 48.6614 33.3705 47.0205 31.7295C45.3796 30.0886 43.154 29.1667 40.8333 29.1667ZM23.3333 20.4167C22.6189 20.4168 21.9294 20.6791 21.3956 21.1538C20.8617 21.6285 20.5206 22.2826 20.4371 22.9921L20.4166 23.3625C20.4175 24.1059 20.7021 24.821 21.2125 25.3615C21.7228 25.9021 22.4203 26.2274 23.1624 26.271C23.9045 26.3145 24.6353 26.0731 25.2053 25.5959C25.7754 25.1188 26.1418 24.442 26.2296 23.7038L26.25 23.3334C26.25 22.5598 25.9427 21.818 25.3957 21.271C24.8487 20.724 24.1069 20.4167 23.3333 20.4167Z" fill="#A3A3A3"/>
</svg>
