<svg width="42" height="42" viewBox="0 0 42 42" fill="none" xmlns="http://www.w3.org/2000/svg">
<path d="M16.0192 17.8462C16.0192 17.432 15.6834 17.0962 15.2692 17.0962C14.855 17.0962 14.5192 17.432 14.5192 17.8462H15.2692H16.0192ZM14.5192 25.8462C14.5192 26.2604 14.855 26.5962 15.2692 26.5962C15.6834 26.5962 16.0192 26.2604 16.0192 25.8462H15.2692H14.5192ZM26.5192 25.8462C26.5192 26.2604 26.855 26.5962 27.2692 26.5962C27.6834 26.5962 28.0192 26.2604 28.0192 25.8462H27.2692H26.5192ZM20.0692 21.8462H19.3192H20.0692ZM19.3192 25.8462C19.3192 26.2604 19.655 26.5962 20.0692 26.5962C20.4834 26.5962 20.8192 26.2604 20.8192 25.8462H20.0692H19.3192ZM16.0192 13.8462C16.0192 13.432 15.6834 13.0962 15.2692 13.0962C14.855 13.0962 14.5192 13.432 14.5192 13.8462H15.2692H16.0192ZM14.5192 15.1795C14.5192 15.5937 14.855 15.9295 15.2692 15.9295C15.6834 15.9295 16.0192 15.5937 16.0192 15.1795H15.2692H14.5192ZM15.2692 17.8462H14.5192V25.8462H15.2692H16.0192V17.8462H15.2692ZM27.2692 25.8462H28.0192V21.8462H27.2692H26.5192V25.8462H27.2692ZM27.2692 21.8462H28.0192C28.0192 19.2991 26.144 17.0962 23.6692 17.0962V17.8462V18.5962C25.1709 18.5962 26.5192 19.975 26.5192 21.8462H27.2692ZM23.6692 17.8462V17.0962C21.1944 17.0962 19.3192 19.2991 19.3192 21.8462H20.0692H20.8192C20.8192 19.975 22.1676 18.5962 23.6692 18.5962V17.8462ZM20.0692 21.8462H19.3192V25.8462H20.0692H20.8192V21.8462H20.0692ZM15.2692 13.8462H14.5192V15.1795H15.2692H16.0192V13.8462H15.2692Z" fill="white"/>
</svg>
