<svg width="399" height="365" viewBox="0 0 399 365" fill="none" xmlns="http://www.w3.org/2000/svg">
<path d="M391.89 175.393C393.514 221.91 374.751 267.232 339.727 301.388C304.703 335.543 256.288 355.735 205.132 357.522C153.977 359.308 104.271 342.543 66.9498 310.913C29.6287 279.284 7.74928 235.381 6.12486 188.864L24.4235 188.225C25.8938 230.329 45.6975 270.067 79.478 298.695C113.258 327.324 158.249 342.499 204.551 340.882C250.854 339.265 294.676 320.989 326.377 290.074C358.078 259.158 375.061 218.136 373.591 176.032L391.89 175.393Z" fill="url(#paint0_linear_66_116)"/>
<path d="M6.12486 188.864C4.50045 142.347 23.264 97.0256 58.2879 62.8698C93.3117 28.7141 141.727 8.52199 192.882 6.7356C244.038 4.9492 293.744 21.7148 331.065 53.3442C368.386 84.9736 390.265 128.876 391.89 175.393L373.591 176.032C372.121 133.928 352.317 94.1907 318.537 65.5619C284.756 36.9332 239.766 21.7581 193.463 23.375C147.161 24.9919 103.339 43.2684 71.6378 74.1838C39.9367 105.099 22.9532 146.121 24.4235 188.225L6.12486 188.864Z" fill="url(#paint1_linear_66_116)"/>
<defs>
<linearGradient id="paint0_linear_66_116" x1="192.882" y1="6.7356" x2="205.132" y2="357.522" gradientUnits="userSpaceOnUse">
<stop stop-color="#8B56C3"/>
<stop offset="0.25" stop-color="#DB5F5F"/>
<stop offset="0.5" stop-color="#FFD744"/>
<stop offset="0.745192" stop-color="#DB5F5F"/>
<stop offset="1" stop-color="#8B56C3"/>
</linearGradient>
<linearGradient id="paint1_linear_66_116" x1="205.132" y1="357.522" x2="192.882" y2="6.73559" gradientUnits="userSpaceOnUse">
<stop stop-color="#8B56C3"/>
<stop offset="0.25" stop-color="#DB5F5F"/>
<stop offset="0.5" stop-color="#FFD744"/>
<stop offset="0.745192" stop-color="#DB5F5F"/>
<stop offset="1" stop-color="#8B56C3"/>
</linearGradient>
</defs>
</svg>
