<svg width="16" height="16" viewBox="0 0 16 16" fill="none" xmlns="http://www.w3.org/2000/svg">
<path fill-rule="evenodd" clip-rule="evenodd" d="M5.32519 5.02854C4.68406 6.06755 4.11093 7.10518 3.76043 7.78483L2.78798 6.84319C2.18266 6.24695 2.14895 5.28155 2.7112 4.64453C2.97739 4.34504 3.35424 4.16709 3.75464 4.15182L5.93831 4.07556C5.73088 4.38199 5.5249 4.70137 5.32519 5.02854Z" stroke="white" stroke-width="1.5" stroke-linecap="round" stroke-linejoin="round"/>
<path fill-rule="evenodd" clip-rule="evenodd" d="M10.6777 10.0196C9.68593 10.7317 8.69081 11.3758 8.03727 11.7729L9.04444 12.6773C9.68146 13.2395 10.6469 13.2058 11.2431 12.6005C11.5233 12.314 11.6745 11.9257 11.6618 11.5252L11.5856 9.34154C11.2944 9.56984 10.9901 9.7976 10.6777 10.0196Z" stroke="white" stroke-width="1.5" stroke-linecap="round" stroke-linejoin="round"/>
<path d="M3.53519 9.80386C3.81762 9.50087 3.80094 9.02628 3.49795 8.74386C3.19495 8.46143 2.72037 8.4781 2.43794 8.7811L2.98657 9.29248L3.53519 9.80386ZM0.201319 11.1806C-0.0811085 11.4836 -0.0644333 11.9582 0.238564 12.2406C0.541562 12.5231 1.01614 12.5064 1.29857 12.2034L0.749945 11.692L0.201319 11.1806ZM5.334 11.483C5.61636 11.1799 5.59959 10.7054 5.29653 10.423C4.99347 10.1406 4.51889 10.1574 4.23653 10.4605L4.78527 10.9717L5.334 11.483ZM3.11968 11.6592C2.83732 11.9622 2.8541 12.4368 3.15716 12.7192C3.46022 13.0015 3.93479 12.9848 4.21716 12.6817L3.66842 12.1704L3.11968 11.6592ZM4.27111 7.23143C3.96783 6.9493 3.49326 6.96645 3.21114 7.26972C2.92901 7.573 2.94616 8.04757 3.24944 8.32969L3.76027 7.78056L4.27111 7.23143ZM5.90315 9.77399L6.41531 9.22609L6.41398 9.22486L5.90315 9.77399ZM7.52904 12.3205C7.83163 12.6033 8.30624 12.5873 8.5891 12.2847C8.87195 11.9822 8.85595 11.5076 8.55336 11.2247L8.0412 11.7726L7.52904 12.3205ZM5.30135 3.67296C5.08246 4.02462 5.19009 4.48713 5.54174 4.70602C5.8934 4.92491 6.35591 4.81728 6.5748 4.46563L5.93808 4.06929L5.30135 3.67296ZM7.6806 1.87615L7.18136 1.31645C7.17084 1.32584 7.16058 1.33552 7.1506 1.34548L7.6806 1.87615ZM14.2836 0.78704L15.0269 0.686679C14.9791 0.332726 14.6883 0.0615828 14.3319 0.0385954L14.2836 0.78704ZM13.6578 7.45094L14.2241 7.94263C14.2334 7.93191 14.2424 7.92093 14.2511 7.9097L13.6578 7.45094ZM11.1518 8.73468C10.8162 8.97756 10.7411 9.44646 10.984 9.78199C11.2269 10.1175 11.6958 10.1926 12.0313 9.94973L11.5915 9.3422L11.1518 8.73468ZM7.13533 13.1615C7.41789 12.8586 7.40142 12.384 7.09855 12.1015C6.79567 11.8189 6.32108 11.8354 6.03852 12.1383L6.58693 12.6499L7.13533 13.1615ZM3.80087 14.5368C3.51831 14.8397 3.53478 15.3143 3.83766 15.5968C4.14053 15.8794 4.61512 15.8629 4.89768 15.56L4.34927 15.0484L3.80087 14.5368ZM12.3486 3.96184C12.6311 3.6589 12.6145 3.18432 12.3115 2.90182C12.0086 2.61933 11.534 2.6359 11.2515 2.93884L11.8 3.45034L12.3486 3.96184ZM10.0585 4.21826C9.77596 4.52119 9.79253 4.99578 10.0955 5.27827C10.3984 5.56076 10.873 5.54419 11.1555 5.24125L10.607 4.72975L10.0585 4.21826ZM2.98657 9.29248L2.43794 8.7811L0.201319 11.1806L0.749945 11.692L1.29857 12.2034L3.53519 9.80386L2.98657 9.29248ZM4.78527 10.9717L4.23653 10.4605L3.11968 11.6592L3.66842 12.1704L4.21716 12.6817L5.334 11.483L4.78527 10.9717ZM3.76027 7.78056L3.24944 8.32969L5.39231 10.3231L5.90315 9.77399L6.41398 9.22486L4.27111 7.23143L3.76027 7.78056ZM5.90315 9.77399L5.39099 10.3219L7.52904 12.3205L8.0412 11.7726L8.55336 11.2247L6.41531 9.22609L5.90315 9.77399ZM5.93808 4.06929L6.5748 4.46563C7.03952 3.71904 7.58837 3.02825 8.2106 2.40681L7.6806 1.87615L7.1506 1.34548C6.44718 2.04802 5.82671 2.82895 5.30135 3.67296L5.93808 4.06929ZM7.6806 1.87615L8.17984 2.43584C8.37871 2.25845 8.72505 2.08159 9.22782 1.93148C9.71889 1.78486 10.3007 1.68069 10.9156 1.61162C12.146 1.47342 13.434 1.4838 14.2353 1.53549L14.2836 0.78704L14.3319 0.0385954C13.4625 -0.0174772 12.0841 -0.029054 10.7482 0.120988C10.08 0.196036 9.40369 0.313533 8.79867 0.494176C8.20535 0.671327 7.6176 0.927332 7.18136 1.31645L7.6806 1.87615ZM14.2836 0.78704L13.5404 0.887402C13.6478 1.68321 13.748 2.96733 13.696 4.20449C13.67 4.82282 13.6067 5.41055 13.4946 5.91082C13.38 6.42298 13.2277 6.7811 13.0645 6.99218L13.6578 7.45094L14.2511 7.9097C14.6087 7.4472 14.8231 6.84294 14.9584 6.23856C15.0964 5.6223 15.1664 4.93935 15.1947 4.26751C15.2511 2.92431 15.1434 1.55007 15.0269 0.686679L14.2836 0.78704ZM13.6578 7.45094L13.0915 6.95925C12.5149 7.62331 11.8641 8.21901 11.1518 8.73468L11.5915 9.3422L12.0313 9.94973C12.8366 9.36678 13.5724 8.69334 14.2241 7.94263L13.6578 7.45094ZM6.58693 12.6499L6.03852 12.1383L3.80087 14.5368L4.34927 15.0484L4.89768 15.56L7.13533 13.1615L6.58693 12.6499ZM11.8 3.45034L11.2515 2.93884L10.0585 4.21826L10.607 4.72975L11.1555 5.24125L12.3486 3.96184L11.8 3.45034Z" fill="white"/>
</svg>
