<svg width="14" height="16" viewBox="0 0 14 16" fill="none" xmlns="http://www.w3.org/2000/svg">
<path d="M7.90064 3.63846C8.17081 3.32448 8.13529 2.85094 7.82132 2.58077C7.50734 2.3106 7.03379 2.34611 6.76363 2.66009L7.33213 3.14927L7.90064 3.63846ZM1.1809 10.298L1.73149 10.8072C1.73758 10.8006 1.74356 10.7939 1.74941 10.7871L1.1809 10.298ZM0.995416 10.7097L0.249033 10.6348L0.247886 10.6489L0.995416 10.7097ZM0.75 13.726L0.00247035 13.6652C-0.000553048 13.7023 -0.000801586 13.7397 0.00172692 13.7769L0.75 13.726ZM1.51254 14.4401L1.51089 15.1901C1.56093 15.1902 1.61086 15.1853 1.65993 15.1754L1.51254 14.4401ZM4.53553 13.8342L4.68293 14.5697L4.69467 14.5671L4.53553 13.8342ZM4.92881 13.6038L5.49041 14.101L5.49719 14.0931L4.92881 13.6038ZM11.7964 6.77649C12.0666 6.46258 12.0312 5.98903 11.7173 5.71878C11.4034 5.44852 10.9299 5.48391 10.6596 5.79781L11.228 6.28715L11.7964 6.77649ZM6.76679 2.66C6.49651 2.97389 6.53187 3.44745 6.84576 3.71772C7.15964 3.988 7.6332 3.95264 7.90347 3.63875L7.33513 3.14938L6.76679 2.66ZM8.99126 1.22601L9.55961 1.71538C9.56989 1.70344 9.57979 1.69118 9.5893 1.67862L8.99126 1.22601ZM10.6304 0.963052L11.1301 0.403708C11.1069 0.383005 11.0825 0.363764 11.0569 0.346093L10.6304 0.963052ZM12.8011 2.90199L13.3501 2.391C13.3344 2.37413 13.3179 2.35799 13.3007 2.34264L12.8011 2.90199ZM13.1092 3.73412L13.8586 3.76442L13.8586 3.76441L13.1092 3.73412ZM12.7349 4.53868L12.229 3.98504C12.207 4.00512 12.1863 4.02649 12.1668 4.04904L12.7349 4.53868ZM10.6599 5.79751C10.3895 6.11128 10.4246 6.58485 10.7384 6.85527C11.0521 7.12568 11.5257 7.09055 11.7961 6.77679L11.228 6.28715L10.6599 5.79751ZM8.08028 3.06418C8.03322 2.65265 7.66147 2.35718 7.24993 2.40423C6.8384 2.45129 6.54293 2.82304 6.58998 3.23457L7.33513 3.14938L8.08028 3.06418ZM11.303 7.03339C11.7151 6.99198 12.0156 6.62431 11.9742 6.21217C11.9328 5.80003 11.5652 5.4995 11.153 5.54091L11.228 6.28715L11.303 7.03339ZM7.33213 3.14927L6.76363 2.66009L0.612393 9.80877L1.1809 10.298L1.74941 10.7871L7.90064 3.63846L7.33213 3.14927ZM1.1809 10.298L0.630306 9.78869C0.414678 10.0218 0.280878 10.3189 0.249165 10.6348L0.995416 10.7097L1.74167 10.7846C1.74082 10.7931 1.73725 10.801 1.73149 10.8072L1.1809 10.298ZM0.995416 10.7097L0.247886 10.6489L0.00247035 13.6652L0.75 13.726L1.49753 13.7868L1.74295 10.7706L0.995416 10.7097ZM0.75 13.726L0.00172692 13.7769C0.0557169 14.5711 0.714823 15.1883 1.51089 15.1901L1.51254 14.4401L1.5142 13.6901C1.511 13.69 1.50944 13.6895 1.50844 13.6891C1.50703 13.6886 1.50518 13.6875 1.5033 13.6857C1.50142 13.684 1.50023 13.6822 1.49957 13.6808C1.4991 13.6799 1.49849 13.6783 1.49827 13.6751L0.75 13.726ZM1.51254 14.4401L1.65993 15.1754L4.68292 14.5696L4.53553 13.8342L4.38815 13.0988L1.36516 13.7047L1.51254 14.4401ZM4.53553 13.8342L4.69467 14.5671C5.0027 14.5002 5.28141 14.3369 5.49035 14.1009L4.92881 13.6038L4.36727 13.1066C4.36967 13.1039 4.37286 13.102 4.37639 13.1013L4.53553 13.8342ZM4.92881 13.6038L5.49719 14.0931L11.7964 6.77649L11.228 6.28715L10.6596 5.79781L4.36044 13.1144L4.92881 13.6038ZM7.33513 3.14938L7.90347 3.63875L9.55961 1.71538L8.99126 1.22601L8.42292 0.736631L6.76679 2.66L7.33513 3.14938ZM8.99126 1.22601L9.5893 1.67862C9.73473 1.48645 10.0057 1.44298 10.204 1.58001L10.6304 0.963052L11.0569 0.346093C10.1978 -0.247707 9.02346 -0.059316 8.39323 0.773393L8.99126 1.22601ZM10.6304 0.963052L10.1308 1.5224L12.3015 3.46133L12.8011 2.90199L13.3007 2.34264L11.1301 0.403708L10.6304 0.963052ZM12.8011 2.90199L12.2521 3.41298C12.3254 3.49168 12.3641 3.5964 12.3598 3.70383L13.1092 3.73412L13.8586 3.76441C13.8791 3.25711 13.696 2.76264 13.3501 2.391L12.8011 2.90199ZM13.1092 3.73412L12.3598 3.70383C12.3554 3.81126 12.3084 3.91251 12.229 3.98504L12.7349 4.53868L13.2409 5.09231C13.6157 4.7498 13.8381 4.27172 13.8586 3.76442L13.1092 3.73412ZM12.7349 4.53868L12.1668 4.04904L10.6599 5.79751L11.228 6.28715L11.7961 6.77679L13.3031 5.02831L12.7349 4.53868ZM7.33513 3.14938L6.58998 3.23457C6.85776 5.57664 8.95746 7.26906 11.303 7.03339L11.228 6.28715L11.153 5.54091C9.62381 5.69456 8.25486 4.59115 8.08028 3.06418L7.33513 3.14938Z" fill="white"/>
</svg>
